<svg xmlns="http://www.w3.org/2000/svg" id="Layer_2" viewBox="0 0 373.02 100"><defs fill="#ffffff"><style>.cls-1{fill:#ffffff;}.cls-2{fill:#ffffff;fill-rule:evenodd;}</style></defs><g id="Layer_1-2"><g id="Layer_1-2"><path class="cls-2" d="M24.45,21.96h-1.57v7.92h1.57v-7.92Z" fill="#ffffff"/><path class="cls-2" d="M31.16,21.96h-1.57v7.92h1.57v-7.92Z" fill="#ffffff"/><path class="cls-2" d="M40.36,6.92l-1.62-2.69L12.02,19.27l1.62,2.69L40.36,6.92Z" fill="#ffffff"/><path class="cls-2" d="M40.2,6.92l1.62-2.69,26.73,15.08-1.62,2.69L40.2,6.92Z" fill="#ffffff"/><path class="cls-2" d="M73.27,22.01v-3.11H0v3.11H73.27Z" fill="#ffffff"/><path class="cls-2" d="M48.4,66.18V19.85h3.19v48.61c-.87-.95-1.95-1.66-3.19-2.24v-.04Z" fill="#ffffff"/><path class="cls-2" d="M38.79,65.4V0h3.19V65.77c-.91-.41-3.11-.37-3.19-.37Z" fill="#ffffff"/><path class="cls-2" d="M8.41,71.9c-3.9-2.82-6.51-7.34-6.51-12.43,0-2.69,.75-5.39,2.11-7.71H31.41c1.41,2.32,2.11,5.01,2.11,7.71,0,2.36-.33,4.56-1.28,6.55-2.07-1.95-5.14-2.78-8.21-2.78-5.47,0-10.15,3.32-11.4,8.29-.41,0-.7-.08-1.12-.08-1.04,0-2.07,.21-3.11,.46Z" fill="#ffffff"/><path class="cls-2" d="M21.84,33.36H13.55v8.12h8.29v-8.12Z" fill="#ffffff"/><path class="cls-2" d="M12.52,33.36H4.23v8.12H12.52v-8.12Z" fill="#ffffff"/><path class="cls-2" d="M12.52,42.44H4.23v8.12H12.52v-8.12Z" fill="#ffffff"/><path class="cls-2" d="M21.84,42.44H13.55v8.12h8.29v-8.12Z" fill="#ffffff"/><path class="cls-2" d="M31.16,42.44h-8.29v8.12h8.29v-8.12Z" fill="#ffffff"/><path class="cls-2" d="M31.16,29.01h-8.29v8.12h8.29v-8.12Z" fill="#ffffff"/><path class="cls-2" d="M14.01,73.15c1.12-4.68,5.47-8.21,10.65-8.21,3.32,0,6.3,1.45,8.33,3.73,1.74-1.2,3.85-1.86,6.17-1.86,6.01,0,10.9,4.77,10.9,10.65,0,1.2-.21,2.36-.58,3.48,1.33,1.74,2.15,3.98,2.15,6.34,0,5.88-4.89,10.65-10.9,10.65-2.65,0-5.1-.91-6.96-2.45-1.99,2.69-5.22,4.52-8.91,4.52-4.23,0-7.92-2.36-9.74-5.8-.75,.17-1.49,.25-2.28,.25-6.01,0-10.94-4.77-10.94-10.65s4.89-10.65,10.94-10.65h1.16Z" fill="#ffffff"/><path class="cls-1" d="M72.52,43.97c1.04-1.33,2.45-2.45,4.27-3.36,1.78-.91,3.81-1.37,6.09-1.37,2.57,0,4.93,.62,7.05,1.86,2.15,1.2,3.85,2.94,5.06,5.18,1.2,2.24,1.82,4.77,1.82,7.67s-.62,5.47-1.82,7.79c-1.2,2.28-2.9,4.02-5.06,5.3-2.11,1.24-4.48,1.86-7.05,1.86-2.28,0-4.27-.41-6.05-1.28-1.74-.91-3.19-2.03-4.31-3.36v17.86h-6.13V39.74h6.13s0,4.23,0,4.23Zm18.03,10.03c0-1.99-.41-3.69-1.28-5.1-.83-1.45-1.95-2.57-3.36-3.27-1.37-.75-2.82-1.16-4.43-1.16s-3.03,.37-4.43,1.16c-1.37,.75-2.49,1.86-3.36,3.36-.83,1.45-1.24,3.19-1.24,5.18s.41,3.73,1.24,5.22c.87,1.45,1.99,2.57,3.36,3.36,1.41,.75,2.86,1.16,4.43,1.16s3.07-.37,4.43-1.16c1.41-.79,2.53-1.95,3.36-3.44,.87-1.49,1.28-3.23,1.28-5.22v-.08Z" fill="#ffffff"/><path class="cls-1" d="M115.79,69c-2.82,0-5.35-.62-7.58-1.82-2.28-1.24-4.02-2.98-5.35-5.22-1.28-2.28-1.95-4.89-1.95-7.83s.66-5.51,1.99-7.79,3.15-4.02,5.43-5.22,4.85-1.82,7.71-1.82,5.39,.62,7.71,1.82,4.1,2.94,5.43,5.22,1.99,4.85,1.99,7.79-.66,5.51-2.03,7.79-3.23,4.02-5.59,5.26c-2.32,1.2-4.93,1.82-7.75,1.82Zm0-5.18c1.57,0,3.07-.37,4.43-1.08,1.41-.75,2.53-1.82,3.4-3.27s1.28-3.23,1.28-5.3-.41-3.85-1.24-5.26c-.83-1.45-1.91-2.57-3.27-3.27-1.37-.75-2.82-1.08-4.43-1.08s-3.07,.37-4.43,1.08c-1.33,.75-2.4,1.82-3.19,3.27-.79,1.41-1.2,3.19-1.2,5.26,0,3.11,.79,5.51,2.4,7.21,1.66,1.66,3.73,2.49,6.17,2.49l.08-.04Z" fill="#ffffff"/><path class="cls-1" d="M143.39,43.93c.91-1.45,2.07-2.61,3.56-3.4,1.49-.83,3.27-1.24,5.35-1.24v6.17h-1.57c-2.4,0-4.23,.58-5.51,1.78-1.2,1.2-1.82,3.23-1.82,6.17v15.13h-6.13v-28.76h6.13v4.14Z" fill="#ffffff"/><path class="cls-1" d="M165.11,44.59v15.91c0,1.08,.25,1.86,.75,2.36,.54,.46,1.45,.66,2.69,.66h3.77v4.97h-4.85c-2.78,0-4.89-.62-6.34-1.86-1.49-1.24-2.2-3.27-2.2-6.09v-15.91h-3.52v-4.85h3.52v-7.17h6.17v7.17h7.21v4.85h-7.21v-.04Z" fill="#ffffff"/><path class="cls-1" d="M175.92,54c0-2.9,.62-5.43,1.82-7.67,1.24-2.24,2.94-3.94,5.06-5.18,2.15-1.24,4.52-1.86,7.13-1.86,2.32,0,4.35,.46,6.09,1.37,1.74,.87,3.15,1.95,4.19,3.27v-4.19h6.17v28.76h-6.17v-4.27c-1.04,1.37-2.45,2.49-4.27,3.4-1.78,.91-3.85,1.37-6.13,1.37-2.57,0-4.89-.62-7-1.86-2.11-1.28-3.81-3.07-5.06-5.3-1.2-2.28-1.82-4.89-1.82-7.79v-.04Zm24.29,.12c0-1.99-.41-3.69-1.28-5.18-.83-1.45-1.91-2.57-3.27-3.36-1.37-.75-2.82-1.16-4.43-1.16s-3.07,.37-4.43,1.16c-1.37,.75-2.49,1.82-3.36,3.27-.83,1.41-1.24,3.15-1.24,5.1s.41,3.73,1.24,5.22c.87,1.49,1.99,2.65,3.36,3.44,1.41,.75,2.86,1.16,4.43,1.16s3.07-.37,4.43-1.16c1.37-.75,2.45-1.86,3.27-3.36,.87-1.49,1.28-3.23,1.28-5.22v.08Z" fill="#ffffff"/><path class="cls-1" d="M217.61,35.93c-1.12,0-2.03-.37-2.82-1.08-.75-.75-1.12-1.62-1.12-2.74s.37-1.99,1.12-2.74,1.7-1.08,2.82-1.08,1.99,.37,2.74,1.08c.75,.75,1.12,1.62,1.12,2.74s-.37,1.99-1.12,2.74-1.66,1.08-2.74,1.08Zm3.03,3.81v28.76h-6.13v-28.76h6.13Z" fill="#ffffff"/><path class="cls-1" d="M243.64,39.29c2.32,0,4.43,.46,6.26,1.41,1.86,.95,3.32,2.32,4.35,4.19s1.57,4.06,1.57,6.67v16.95h-6.09v-16.08c0-2.57-.66-4.56-1.99-5.88-1.33-1.41-3.15-2.07-5.43-2.07s-4.14,.7-5.51,2.07c-1.33,1.37-1.99,3.32-1.99,5.88v16.08h-6.13v-28.76h6.13v3.27c.99-1.2,2.28-2.11,3.81-2.78,1.57-.66,3.23-.99,5.01-.99v.04Z" fill="#ffffff"/><path class="cls-1" d="M290.88,53.42c0,1.08-.08,2.07-.21,2.94h-22.67c.17,2.28,1.08,4.14,2.65,5.55s3.52,2.07,5.8,2.07c3.32,0,5.64-1.33,7-4.02h6.63c-.91,2.65-2.53,4.81-4.89,6.51-2.32,1.66-5.26,2.49-8.74,2.49-2.82,0-5.39-.62-7.67-1.82-2.24-1.24-3.98-2.98-5.26-5.22-1.24-2.28-1.86-4.89-1.86-7.83s.62-5.55,1.82-7.79c1.24-2.28,2.98-4.02,5.22-5.22,2.28-1.2,4.85-1.82,7.75-1.82s5.3,.58,7.5,1.78,3.9,2.86,5.1,5.01c1.2,2.11,1.82,4.56,1.82,7.38Zm-6.42-1.86c0-2.2-.83-3.94-2.4-5.26-1.57-1.33-3.52-1.99-5.88-1.99-2.11,0-3.94,.66-5.43,1.99-1.49,1.28-2.4,3.03-2.69,5.26h16.41Z" fill="#ffffff"/><path class="cls-1" d="M303.07,43.93c.91-1.45,2.07-2.61,3.56-3.4,1.49-.83,3.27-1.24,5.35-1.24v6.17h-1.57c-2.4,0-4.23,.58-5.51,1.78-1.2,1.2-1.82,3.23-1.82,6.17v15.13h-6.13v-28.76h6.13v4.14Z" fill="#ffffff"/><path class="cls-1" d="M320.06,68.88c-1.12,0-2.03-.37-2.82-1.08-.75-.75-1.12-1.62-1.12-2.74s.37-1.99,1.12-2.74,1.7-1.08,2.82-1.08,1.99,.37,2.74,1.08c.75,.75,1.12,1.62,1.12,2.74s-.37,1.99-1.12,2.74-1.66,1.08-2.74,1.08Z" fill="#ffffff"/><path class="cls-1" d="M333.69,35.93c-1.12,0-2.03-.37-2.82-1.08-.75-.75-1.12-1.62-1.12-2.74s.37-1.99,1.12-2.74,1.7-1.08,2.82-1.08,1.99,.37,2.74,1.08c.75,.75,1.12,1.62,1.12,2.74s-.37,1.99-1.12,2.74-1.66,1.08-2.74,1.08Zm3.03,3.81v28.76h-6.13v-28.76h6.13Z" fill="#ffffff"/><path class="cls-1" d="M357.65,69c-2.82,0-5.35-.62-7.58-1.82-2.28-1.24-4.02-2.98-5.35-5.22-1.28-2.28-1.95-4.89-1.95-7.83s.66-5.51,1.99-7.79,3.15-4.02,5.43-5.22c2.28-1.2,4.85-1.82,7.71-1.82s5.39,.62,7.71,1.82c2.28,1.2,4.1,2.94,5.43,5.22s1.99,4.85,1.99,7.79-.66,5.51-2.03,7.79-3.23,4.02-5.59,5.26c-2.32,1.2-4.93,1.82-7.75,1.82Zm0-5.18c1.57,0,3.07-.37,4.43-1.08,1.41-.75,2.53-1.82,3.4-3.27s1.28-3.23,1.28-5.3-.41-3.85-1.24-5.26c-.83-1.45-1.91-2.57-3.27-3.27-1.37-.75-2.82-1.08-4.43-1.08s-3.07,.37-4.43,1.08c-1.33,.75-2.4,1.82-3.19,3.27-.79,1.41-1.2,3.19-1.2,5.26,0,3.11,.79,5.51,2.4,7.21,1.66,1.66,3.73,2.49,6.17,2.49l.08-.04Z" fill="#ffffff"/></g></g></svg>